<svg width="64" height="64" viewBox="0 0 64 64" xmlns="http://www.w3.org/2000/svg">
  <!-- TypeScript Logo -->
  <rect width="64" height="64" rx="6" fill="#3178c6"/>
  
  <!-- TS Text -->
  <g fill="white">
    <!-- T -->
    <rect x="8" y="12" width="18" height="4"/>
    <rect x="15" y="12" width="4" height="28"/>
    
    <!-- S -->
    <path d="M32,12 L48,12 L48,16 L36,16 L36,20 L48,20 L48,28 L36,28 L36,32 L48,32 L48,36 L32,36 L32,32 L44,32 L44,28 L32,28 L32,20 L44,20 L44,16 L32,16 Z"/>
  </g>
  
  <!-- Decorative elements -->
  <rect x="8" y="48" width="48" height="2" fill="#f0f8ff" opacity="0.6"/>
  <rect x="12" y="52" width="40" height="1" fill="#f0f8ff" opacity="0.4"/>
</svg>